<svg width="25" height="26" viewBox="0 0 25 26" fill="none" xmlns="http://www.w3.org/2000/svg">
<path fill-rule="evenodd" clip-rule="evenodd" d="M12.469 10.1474C16.5396 10.1474 18.9492 7.98778 18.9492 5.32372C18.9492 2.65965 16.4226 0.5 12.469 0.5C8.2814 0.5 5.98877 2.65965 5.98877 5.32372C5.98877 7.98778 8.39837 10.1474 12.469 10.1474ZM17.2179 5.3653C17.2179 6.44471 15.0707 7.31974 12.4221 7.31974C9.77341 7.31974 7.62625 6.44471 7.62625 5.3653C7.62625 4.28589 9.77341 3.41086 12.4221 3.41086C15.0707 3.41086 17.2179 4.28589 17.2179 5.3653Z" fill="#FF4B26"/>
<path d="M20.9873 9.17344C20.9873 9.17344 16.5434 15.0904 15.446 15.7832C14.9637 16.1491 14.5185 16.9888 14.3562 17.3629C12.928 21.3205 14.3794 24.0281 15.2837 24.8873C16.4893 26.6166 21.0723 24.2776 23.2131 22.8919C25.6244 21.7279 25.0834 18.6932 24.5115 17.3214C25.5317 14.9934 24.7202 13.1088 24.1869 12.4575C25.003 10.5287 24.5269 8.82702 24.1869 8.21731C22.7654 5.70177 21.6242 7.92999 20.9962 9.156L20.9873 9.17344Z" fill="#FF4B26"/>
<path d="M4.01271 9.17344C4.01271 9.17344 8.4566 15.0904 9.55405 15.7832C10.0363 16.1491 10.4815 16.9888 10.6438 17.3629C12.072 21.3205 10.6206 24.0281 9.71634 24.8873C8.51069 26.6166 3.92769 24.2776 1.78689 22.8919C-0.624401 21.7279 -0.0834041 18.6932 0.488506 17.3214C-0.531656 14.9934 0.279839 13.1088 0.813108 12.4575C-0.00302235 10.5287 0.473054 8.82702 0.813108 8.21731C2.23457 5.70177 3.37583 7.92999 4.00377 9.156L4.01271 9.17344Z" fill="#FF4B26"/>
</svg>
