<svg width="15" height="16" viewBox="0 0 15 16" fill="none" xmlns="http://www.w3.org/2000/svg">
<path fill-rule="evenodd" clip-rule="evenodd" d="M7.48138 6.28846C9.92373 6.28846 11.3695 4.99267 11.3695 3.39423C11.3695 1.79579 9.85355 0.5 7.48138 0.5C4.96884 0.5 3.59326 1.79579 3.59326 3.39423C3.59326 4.99267 5.03902 6.28846 7.48138 6.28846ZM10.3307 3.41918C10.3307 4.06682 9.04244 4.59184 7.45325 4.59184C5.86406 4.59184 4.57576 4.06682 4.57576 3.41918C4.57576 2.77154 5.86406 2.24652 7.45325 2.24652C9.04244 2.24652 10.3307 2.77154 10.3307 3.41918Z" fill="white"/>
<path d="M12.5924 5.70409C12.5924 5.70409 9.92604 9.25425 9.26757 9.66996C8.97821 9.88946 8.71112 10.3933 8.61375 10.6178C7.75681 12.9923 8.62766 14.6169 9.1702 15.1324C9.89359 16.17 12.6434 14.7666 13.9279 13.9351C15.3746 13.2368 15.05 11.4159 14.7069 10.5928C15.319 9.19605 14.8321 8.06532 14.5121 7.67455C15.0018 6.51722 14.7162 5.49623 14.5121 5.13041C13.6593 3.62109 12.9745 4.95802 12.5977 5.69362L12.5924 5.70409Z" fill="white"/>
<path d="M2.40763 5.70409C2.40763 5.70409 5.07396 9.25425 5.73243 9.66996C6.02179 9.88946 6.28888 10.3933 6.38625 10.6178C7.24319 12.9923 6.37234 14.6169 5.8298 15.1324C5.10641 16.17 2.35661 14.7666 1.07214 13.9351C-0.374641 13.2368 -0.0500425 11.4159 0.293104 10.5928C-0.318994 9.19605 0.167904 8.06532 0.487865 7.67455C-0.00181341 6.51722 0.283832 5.49623 0.487865 5.13041C1.34074 3.62109 2.0255 4.95802 2.40226 5.69362L2.40763 5.70409Z" fill="white"/>
</svg>
