<svg width="26" height="26" viewBox="0 0 26 26" fill="none" xmlns="http://www.w3.org/2000/svg">
<g id="Angel">
<path id="Subtract" fill-rule="evenodd" clip-rule="evenodd" d="M12.6617 10.1474C16.7323 10.1474 19.1419 7.98778 19.1419 5.32372C19.1419 2.65965 16.6153 0.5 12.6617 0.5C8.47415 0.5 6.18152 2.65965 6.18152 5.32372C6.18152 7.98778 8.59112 10.1474 12.6617 10.1474ZM17.4106 5.3653C17.4106 6.44471 15.2635 7.31974 12.6148 7.31974C9.96618 7.31974 7.81902 6.44471 7.81902 5.3653C7.81902 4.28589 9.96618 3.41086 12.6148 3.41086C15.2635 3.41086 17.4106 4.28589 17.4106 5.3653Z" fill="#4C5454"/>
<path id="Vector 5" d="M21.1799 9.17347C21.1799 9.17347 16.736 15.0904 15.6386 15.7833C15.1563 16.1491 14.7112 16.9888 14.5489 17.363C13.1206 21.3205 14.5721 24.0282 15.4763 24.8873C16.6819 26.6167 21.2649 24.2776 23.4057 22.8919C25.817 21.7279 25.276 18.6932 24.7041 17.3214C25.7243 14.9934 24.9128 13.1089 24.3795 12.4576C25.1956 10.5287 24.7196 8.82705 24.3795 8.21734C22.9581 5.7018 21.8168 7.93002 21.1889 9.15603L21.1799 9.17347Z" fill="#4C5454"/>
<path id="Vector 3" d="M4.20534 9.17347C4.20534 9.17347 8.64923 15.0904 9.74667 15.7833C10.2289 16.1491 10.6741 16.9888 10.8364 17.363C12.2646 21.3205 10.8132 24.0282 9.90897 24.8873C8.70332 26.6167 4.12032 24.2776 1.97952 22.8919C-0.431774 21.7279 0.109223 18.6932 0.681133 17.3214C-0.339029 14.9934 0.472466 13.1089 1.00573 12.4576C0.189605 10.5287 0.665681 8.82705 1.00573 8.21734C2.42719 5.7018 3.56846 7.93002 4.1964 9.15603L4.20534 9.17347Z" fill="#4C5454"/>
</g>
</svg>
