<svg width="12" height="16" viewBox="0 0 12 16" fill="none" xmlns="http://www.w3.org/2000/svg">
<g clip-path="url(#clip0_330_7798)">
<path d="M1.25312 14.1846L0.903125 14.4482C0.803125 14.5215 0.68125 14.5625 0.55625 14.5625C0.25 14.5625 0 14.3281 0 14.041V6.125C0 3.01953 2.6875 0.5 6 0.5C9.3125 0.5 12 3.01953 12 6.125V14.041C12 14.3281 11.75 14.5625 11.4438 14.5625C11.3188 14.5625 11.1969 14.5215 11.0969 14.4482L10.7469 14.1846C10.3281 13.8711 9.72187 13.9209 9.36875 14.2988L8.41562 15.3242C8.3125 15.4355 8.15938 15.5 8 15.5C7.84062 15.5 7.69062 15.4355 7.58437 15.3242L6.75313 14.4307C6.35625 14.0029 5.64687 14.0029 5.24687 14.4307L4.41563 15.3242C4.3125 15.4355 4.15938 15.5 4 15.5C3.84063 15.5 3.69062 15.4355 3.58437 15.3242L2.63125 14.2988C2.27812 13.9209 1.67188 13.8711 1.25312 14.1846ZM5 6.125C5 5.87636 4.89464 5.6379 4.70711 5.46209C4.51957 5.28627 4.26522 5.1875 4 5.1875C3.73478 5.1875 3.48043 5.28627 3.29289 5.46209C3.10536 5.6379 3 5.87636 3 6.125C3 6.37364 3.10536 6.6121 3.29289 6.78791C3.48043 6.96373 3.73478 7.0625 4 7.0625C4.26522 7.0625 4.51957 6.96373 4.70711 6.78791C4.89464 6.6121 5 6.37364 5 6.125ZM8 7.0625C8.26522 7.0625 8.51957 6.96373 8.70711 6.78791C8.89464 6.6121 9 6.37364 9 6.125C9 5.87636 8.89464 5.6379 8.70711 5.46209C8.51957 5.28627 8.26522 5.1875 8 5.1875C7.73478 5.1875 7.48043 5.28627 7.29289 5.46209C7.10536 5.6379 7 5.87636 7 6.125C7 6.37364 7.10536 6.6121 7.29289 6.78791C7.48043 6.96373 7.73478 7.0625 8 7.0625Z" fill="white"/>
</g>
<defs>
<clipPath id="clip0_330_7798">
<rect width="12" height="15" fill="white" transform="translate(0 0.5)"/>
</clipPath>
</defs>
</svg>
