<svg width="21" height="26" viewBox="0 0 21 26" fill="none" xmlns="http://www.w3.org/2000/svg">
<g id="ghost-solid 1" clip-path="url(#clip0_548_698)">
<path id="Vector" d="M2.28117 23.3076L1.69784 23.7471C1.53117 23.8691 1.32804 23.9375 1.11971 23.9375C0.609294 23.9375 0.192627 23.5469 0.192627 23.0684V9.875C0.192627 4.69922 4.67179 0.5 10.1926 0.5C15.7135 0.5 20.1926 4.69922 20.1926 9.875V23.0684C20.1926 23.5469 19.776 23.9375 19.2655 23.9375C19.0572 23.9375 18.8541 23.8691 18.6874 23.7471L18.1041 23.3076C17.4062 22.7852 16.3958 22.8682 15.8072 23.498L14.2187 25.207C14.0468 25.3926 13.7916 25.5 13.526 25.5C13.2603 25.5 13.0103 25.3926 12.8333 25.207L11.4478 23.7178C10.7864 23.0049 9.60408 23.0049 8.93742 23.7178L7.552 25.207C7.38013 25.3926 7.12492 25.5 6.85929 25.5C6.59367 25.5 6.34367 25.3926 6.16658 25.207L4.57804 23.498C3.9895 22.8682 2.97909 22.7852 2.28117 23.3076ZM8.52596 9.875C8.52596 9.4606 8.35036 9.06317 8.0378 8.77015C7.72524 8.47712 7.30132 8.3125 6.85929 8.3125C6.41727 8.3125 5.99334 8.47712 5.68078 8.77015C5.36822 9.06317 5.19263 9.4606 5.19263 9.875C5.19263 10.2894 5.36822 10.6868 5.68078 10.9799C5.99334 11.2729 6.41727 11.4375 6.85929 11.4375C7.30132 11.4375 7.72524 11.2729 8.0378 10.9799C8.35036 10.6868 8.52596 10.2894 8.52596 9.875ZM13.526 11.4375C13.968 11.4375 14.3919 11.2729 14.7045 10.9799C15.017 10.6868 15.1926 10.2894 15.1926 9.875C15.1926 9.4606 15.017 9.06317 14.7045 8.77015C14.3919 8.47712 13.968 8.3125 13.526 8.3125C13.0839 8.3125 12.66 8.47712 12.3474 8.77015C12.0349 9.06317 11.8593 9.4606 11.8593 9.875C11.8593 10.2894 12.0349 10.6868 12.3474 10.9799C12.66 11.2729 13.0839 11.4375 13.526 11.4375Z" fill="#4C5454"/>
</g>
<defs>
<clipPath id="clip0_548_698">
<rect width="20" height="25" fill="white" transform="translate(0.192627 0.5)"/>
</clipPath>
</defs>
</svg>
