<svg width="12" height="13" viewBox="0 0 12 13" fill="none" xmlns="http://www.w3.org/2000/svg">
<path d="M11.1818 11.8849C11.1818 11.8849 12.0977 10.0813 11.9914 7.68709C11.9914 7.68709 12.0029 4.58178 10.4812 2.06713C10.4812 2.06713 10.0159 1.27084 9.78604 1.02766C9.78604 1.02766 9.68804 0.931103 9.60836 1.14627C9.60836 1.14627 9.57081 1.27024 9.69308 1.38766C9.69308 1.38766 11.1328 4.30046 7.73589 7.21087C7.73589 7.21087 7.13738 7.5506 8.19519 9.32319C8.19519 9.32319 10.271 12.6139 11.1612 11.9064" fill="white"/>
<path d="M0.818272 11.8728C0.818272 11.8728 -0.097585 10.0692 0.00865452 7.67498C0.00865452 7.67498 -0.002793 4.56967 1.5189 2.05502C1.5189 2.05502 1.98416 1.25872 2.21404 1.01554C2.21404 1.01554 2.31204 0.918987 2.39172 1.13415C2.39172 1.13415 2.42927 1.25813 2.307 1.37555C2.307 1.37555 0.867271 4.28834 4.26419 7.19875C4.26419 7.19875 4.8627 7.53849 3.80488 9.31108C3.80488 9.31108 1.72909 12.6018 0.83888 11.8943" fill="white"/>
</svg>
