<svg width="25" height="26" viewBox="0 0 25 26" fill="none" xmlns="http://www.w3.org/2000/svg">
<path d="M1.80969 21.79C1.80969 21.79 -0.216012 18.664 0.0189696 14.5142C0.0189696 14.5142 -0.00635196 9.13199 3.35935 4.77354C3.35935 4.77354 4.38841 3.39338 4.89686 2.97189C4.89686 2.97189 5.11361 2.80453 5.28985 3.17747C5.28985 3.17747 5.3729 3.39234 5.10247 3.59585C5.10247 3.59585 1.91807 8.64439 9.4314 13.6888C9.4314 13.6888 10.7552 14.2776 8.41551 17.3499C8.41551 17.3499 3.82425 23.0534 1.85527 21.8272" fill="#FF4B26"/>
<path d="M23.1906 21.7812C23.1906 21.7812 25.2163 18.6552 24.9813 14.5054C24.9813 14.5054 25.0066 9.1232 21.6409 4.76475C21.6409 4.76475 20.6119 3.38459 20.1034 2.9631C20.1034 2.9631 19.8867 2.79575 19.7104 3.16868C19.7104 3.16868 19.6274 3.38355 19.8978 3.58706C19.8978 3.58706 23.0822 8.6356 15.5689 13.68C15.5689 13.68 14.2451 14.2688 16.5848 17.3412C16.5848 17.3412 21.176 23.0446 23.145 21.8184" fill="#FF4B26"/>
</svg>
