<svg width="26" height="26" viewBox="0 0 26 26" fill="none" xmlns="http://www.w3.org/2000/svg">
<g id="Hell&#39;s Horns">
<path id="Vector" d="M2.00231 21.79C2.00231 21.79 -0.0233842 18.664 0.211596 14.5142C0.211596 14.5142 0.186275 9.132 3.55197 4.77356C3.55197 4.77356 4.58102 3.3934 5.08947 2.97192C5.08947 2.97192 5.30622 2.80457 5.48246 3.1775C5.48246 3.1775 5.56551 3.39237 5.29508 3.59588C5.29508 3.59588 2.11069 8.6444 9.62399 13.6888C9.62399 13.6888 10.9478 14.2776 8.6081 17.3499C8.6081 17.3499 4.01687 23.0534 2.04789 21.8272" fill="#4C5454"/>
<path id="Vector_2" d="M23.3829 21.7812C23.3829 21.7812 25.4086 18.6552 25.1737 14.5054C25.1737 14.5054 25.199 9.12324 21.8333 4.7648C21.8333 4.7648 20.8042 3.38465 20.2958 2.96316C20.2958 2.96316 20.079 2.79581 19.9028 3.16874C19.9028 3.16874 19.8197 3.38361 20.0902 3.58712C20.0902 3.58712 23.2746 8.63564 15.7613 13.68C15.7613 13.68 14.4375 14.2689 16.7771 17.3412C16.7771 17.3412 21.3684 23.0446 23.3374 21.8184" fill="#4C5454"/>
</g>
</svg>
