<svg width="7" height="16" viewBox="0 0 7 16" fill="none" xmlns="http://www.w3.org/2000/svg">
<path fill-rule="evenodd" clip-rule="evenodd" d="M0 3.34061V13.5477C0.144439 13.7387 0.27283 13.8671 0.449367 14.0131L2.92088 15.4575C2.99043 15.4896 3.20013 15.5345 3.48259 15.4575L5.4887 14.2538C5.55824 14.211 5.69412 14.0805 5.68128 13.9007C5.66844 13.721 5.67593 9.37496 5.68128 7.22442C5.92736 6.86065 6.41632 6.00471 6.40348 5.49115C6.40238 5.44733 6.40151 5.40128 6.4006 5.35332C6.38822 4.69861 6.36914 3.68963 5.68128 3.19617V1.78387C5.23191 1.05581 3.80678 -0.13711 1.70117 0.915693C1.15017 1.1842 0.0385172 2.0451 0 3.34061ZM3.53081 2.36007V2.36001C3.53081 2.27138 3.45177 2.19952 3.35427 2.19952C3.25677 2.19952 3.17773 2.27138 3.17773 2.36001V2.36007V3.20122C2.18914 3.2827 1.41223 4.11087 1.41223 5.12049C1.41223 6.13012 2.18914 6.95828 3.17773 7.03977V7.84875V7.84883C3.17778 7.93743 3.2568 8.00924 3.35427 8.00924C3.45174 8.00924 3.53077 7.93743 3.53081 7.84883V7.84875V7.03683C4.50394 6.94014 5.26395 6.11907 5.26395 5.12049C5.26395 4.12191 4.50394 3.30084 3.53081 3.20416V2.36007ZM3.3544 5.85884C3.68076 5.85884 3.95657 5.64235 4.04604 5.34515H4.9598C4.85057 6.12517 4.18064 6.72544 3.37051 6.72544C2.56038 6.72544 1.89044 6.12517 1.78122 5.34515H2.66276C2.75223 5.64235 3.02803 5.85884 3.3544 5.85884ZM3.37051 3.51568C4.20266 3.51568 4.88689 4.14902 4.96745 4.95997H4.05483C3.97602 4.64652 3.69231 4.41444 3.3544 4.41444C3.01649 4.41444 2.73278 4.64652 2.65397 4.95997H1.77356C1.85412 4.14902 2.53835 3.51568 3.37051 3.51568ZM3.75557 5.12056C3.75557 5.33328 3.57593 5.50573 3.35435 5.50573C3.13276 5.50573 2.95312 5.33328 2.95312 5.12056C2.95312 4.90784 3.13276 4.73539 3.35435 4.73539C3.57593 4.73539 3.75557 4.90784 3.75557 5.12056ZM1.73331 10.9944C1.73331 11.2603 1.51776 11.4759 1.25185 11.4759C0.985945 11.4759 0.770386 11.2603 0.770386 10.9944C0.770386 10.7285 0.985945 10.513 1.25185 10.513C1.51776 10.513 1.73331 10.7285 1.73331 10.9944ZM1.43434 10.9777C1.43434 11.0694 1.36001 11.1437 1.26832 11.1437C1.17663 11.1437 1.10229 11.0694 1.10229 10.9777C1.10229 10.886 1.17663 10.8117 1.26832 10.8117C1.36001 10.8117 1.43434 10.886 1.43434 10.9777ZM1.57306 11.9573H0.899025V11.9573H0.898763C0.7924 11.9573 0.706177 12.0435 0.706177 12.1499C0.706177 12.2563 0.7924 12.3425 0.898763 12.3425L0.903525 12.3424H1.57306H1.57308C1.67943 12.3424 1.76564 12.2562 1.76564 12.1498C1.76564 12.0435 1.67943 11.9573 1.57308 11.9573H1.57306ZM1.57308 12.7596H0.899048V12.7597H0.898785C0.792423 12.7597 0.7062 12.8459 0.7062 12.9523C0.7062 13.0587 0.792423 13.1449 0.898785 13.1449L0.903983 13.1448H1.57308H1.5731C1.67945 13.1448 1.76566 13.0586 1.76566 12.9522C1.76566 12.8459 1.67945 12.7597 1.5731 12.7596H1.57308Z" fill="white"/>
</svg>
