<svg width="13" height="31" viewBox="0 0 13 31" fill="none" xmlns="http://www.w3.org/2000/svg">
<path id="Subtract" fill-rule="evenodd" clip-rule="evenodd" d="M0.192627 6.18122V26.5953C0.481506 26.9774 0.738287 27.2342 1.09136 27.5261L6.0344 30.4149C6.17349 30.4791 6.5929 30.569 7.15781 30.4149L11.17 28.0076C11.3091 27.922 11.5809 27.661 11.5552 27.3015C11.5295 26.942 11.5445 18.2499 11.5552 13.9488C12.0474 13.2213 13.0253 11.5094 12.9996 10.4823C12.9974 10.3947 12.9957 10.3026 12.9938 10.2066C12.9691 8.89722 12.9309 6.87926 11.5552 5.89234V3.06774C10.6565 1.61162 7.80619 -0.77422 3.59498 1.33139C2.49296 1.8684 0.269661 3.59019 0.192627 6.18122ZM7.25431 4.22013V4.22002C7.25431 4.04275 7.09624 3.89905 6.90124 3.89905C6.70624 3.89905 6.54817 4.04275 6.54817 4.22002V4.22013V5.90243C4.571 6.06543 3.0172 7.72176 3.0172 9.74098C3.0172 11.7602 4.571 13.4165 6.54817 13.5795V15.1975V15.1977C6.54825 15.3749 6.7063 15.5185 6.90124 15.5185C7.09618 15.5185 7.25423 15.3749 7.25431 15.1977V15.1975V13.5737C9.2006 13.3803 10.7206 11.7382 10.7206 9.74098C10.7206 7.74381 9.2006 6.10166 7.25431 5.90831V4.22013ZM10.1274 9.41995H8.30208C8.14446 8.79303 7.57704 8.32888 6.90122 8.32888C6.22539 8.32888 5.65798 8.79303 5.50035 9.41995H3.73965C3.90078 7.79804 5.26924 6.53135 6.93355 6.53135C8.59786 6.53135 9.96631 7.79804 10.1274 9.41995ZM6.93355 12.9509C8.55381 12.9509 9.89367 11.7503 10.1121 10.1903H8.2845C8.10555 10.7847 7.55395 11.2177 6.90122 11.2177C6.24849 11.2177 5.69688 10.7847 5.51793 10.1903H3.75497C3.97342 11.7503 5.31329 12.9509 6.93355 12.9509ZM7.7036 9.74112C7.7036 10.1666 7.34434 10.5115 6.90116 10.5115C6.45799 10.5115 6.09872 10.1666 6.09872 9.74112C6.09872 9.31567 6.45799 8.97077 6.90116 8.97077C7.34434 8.97077 7.7036 9.31567 7.7036 9.74112ZM3.65931 21.4888C3.65931 22.0206 3.22819 22.4518 2.69638 22.4518C2.16457 22.4518 1.73345 22.0206 1.73345 21.4888C1.73345 20.957 2.16457 20.5259 2.69638 20.5259C3.22819 20.5259 3.65931 20.957 3.65931 21.4888ZM3.06165 21.4554C3.06165 21.6388 2.91299 21.7874 2.7296 21.7874C2.54622 21.7874 2.39756 21.6388 2.39756 21.4554C2.39756 21.272 2.54622 21.1234 2.7296 21.1234C2.91299 21.1234 3.06165 21.272 3.06165 21.4554ZM3.33847 23.4145H1.99044V23.4146H1.99025C1.77753 23.4146 1.60508 23.587 1.60508 23.7998C1.60508 24.0125 1.77753 24.1849 1.99025 24.1849L1.9982 24.1848H3.33847H3.33854C3.55123 24.1848 3.72365 24.0124 3.72365 23.7997C3.72365 23.587 3.55123 23.4145 3.33854 23.4145H3.33847ZM3.33845 25.0193H1.99041V25.0193H1.99023C1.7775 25.0193 1.60505 25.1918 1.60505 25.4045C1.60505 25.6172 1.7775 25.7897 1.99023 25.7897L1.99582 25.7896H3.33845H3.33851C3.55121 25.7896 3.72362 25.6172 3.72362 25.4045C3.72362 25.1918 3.55121 25.0193 3.33851 25.0193H3.33845Z" fill="#4C5454"/>
</svg>
