<svg width="13" height="30" viewBox="0 0 13 30" fill="none" xmlns="http://www.w3.org/2000/svg">
<path fill-rule="evenodd" clip-rule="evenodd" d="M0 5.68122V26.0953C0.288879 26.4774 0.54566 26.7342 0.898734 27.0261L5.84177 29.9149C5.98086 29.9791 6.40027 30.069 6.96519 29.9149L10.9774 27.5076C11.1165 27.422 11.3882 27.161 11.3626 26.8015C11.3369 26.442 11.3519 17.7499 11.3626 13.4488C11.8547 12.7213 12.8326 11.0094 12.807 9.9823C12.8048 9.89467 12.803 9.80255 12.8012 9.70664C12.7764 8.39722 12.7383 6.37926 11.3626 5.39234V2.56774C10.4638 1.11162 7.61356 -1.27422 3.40235 0.831385C2.30033 1.3684 0.0770343 3.09019 0 5.68122ZM7.06169 3.72013V3.72002C7.06169 3.54275 6.90361 3.39905 6.70861 3.39905C6.51362 3.39905 6.35554 3.54275 6.35554 3.72002V3.72013V5.40243C4.37837 5.56543 2.82458 7.22176 2.82458 9.24098C2.82458 11.2602 4.37837 12.9165 6.35554 13.0795V14.6975V14.6977C6.35562 14.8749 6.51367 15.0185 6.70861 15.0185C6.90356 15.0185 7.0616 14.8749 7.06169 14.6977V14.6975V13.0737C9.00798 12.8803 10.528 11.2382 10.528 9.24098C10.528 7.24381 9.00798 5.60166 7.06169 5.40831V3.72013ZM9.93482 8.91995H8.10946C7.95183 8.29303 7.38442 7.82888 6.70859 7.82888C6.03277 7.82888 5.46535 8.29303 5.30773 8.91995H3.54703C3.70816 7.29804 5.07661 6.03135 6.74092 6.03135C8.40523 6.03135 9.77369 7.29804 9.93482 8.91995ZM6.74092 12.4509C8.36118 12.4509 9.70105 11.2503 9.91951 9.69029H8.09187C7.91293 10.2847 7.36132 10.7177 6.70859 10.7177C6.05586 10.7177 5.50426 10.2847 5.32531 9.69029H3.56234C3.78079 11.2503 5.12066 12.4509 6.74092 12.4509ZM7.51098 9.24112C7.51098 9.66657 7.15171 10.0115 6.70854 10.0115C6.26536 10.0115 5.9061 9.66657 5.9061 9.24112C5.9061 8.81567 6.26536 8.47077 6.70854 8.47077C7.15171 8.47077 7.51098 8.81567 7.51098 9.24112ZM3.46668 20.9888C3.46668 21.5206 3.03556 21.9518 2.50375 21.9518C1.97194 21.9518 1.54082 21.5206 1.54082 20.9888C1.54082 20.457 1.97194 20.0259 2.50375 20.0259C3.03556 20.0259 3.46668 20.457 3.46668 20.9888ZM2.86902 20.9554C2.86902 21.1388 2.72036 21.2874 2.53698 21.2874C2.35359 21.2874 2.20493 21.1388 2.20493 20.9554C2.20493 20.772 2.35359 20.6234 2.53698 20.6234C2.72036 20.6234 2.86902 20.772 2.86902 20.9554ZM3.14585 22.9145H1.79781V22.9146H1.79762C1.5849 22.9146 1.41245 23.087 1.41245 23.2998C1.41245 23.5125 1.5849 23.6849 1.79762 23.6849L1.80558 23.6848H3.14585H3.14591C3.35861 23.6848 3.53102 23.5124 3.53102 23.2997C3.53102 23.087 3.35861 22.9145 3.14591 22.9145H3.14585ZM3.14582 24.5193H1.79779V24.5193H1.7976C1.58487 24.5193 1.41243 24.6918 1.41243 24.9045C1.41243 25.1172 1.58487 25.2897 1.7976 25.2897L1.80319 25.2896H3.14582H3.14589C3.35858 25.2896 3.53099 25.1172 3.53099 24.9045C3.53099 24.6918 3.35858 24.5193 3.14589 24.5193H3.14582Z" fill="#FF4B26"/>
</svg>
