<svg width="20" height="25" viewBox="0 0 20 25" fill="none" xmlns="http://www.w3.org/2000/svg">
<path d="M2.08854 22.8076L1.50521 23.2471C1.33854 23.3691 1.13542 23.4375 0.927083 23.4375C0.416667 23.4375 0 23.0469 0 22.5684V9.375C0 4.19922 4.47917 0 10 0C15.5208 0 20 4.19922 20 9.375V22.5684C20 23.0469 19.5833 23.4375 19.0729 23.4375C18.8646 23.4375 18.6615 23.3691 18.4948 23.2471L17.9115 22.8076C17.2135 22.2852 16.2031 22.3682 15.6146 22.998L14.026 24.707C13.8542 24.8926 13.599 25 13.3333 25C13.0677 25 12.8177 24.8926 12.6406 24.707L11.2552 23.2178C10.5938 22.5049 9.41146 22.5049 8.74479 23.2178L7.35938 24.707C7.1875 24.8926 6.93229 25 6.66667 25C6.40104 25 6.15104 24.8926 5.97396 24.707L4.38542 22.998C3.79687 22.3682 2.78646 22.2852 2.08854 22.8076ZM8.33333 9.375C8.33333 8.9606 8.15774 8.56317 7.84518 8.27015C7.53262 7.97712 7.10869 7.8125 6.66667 7.8125C6.22464 7.8125 5.80072 7.97712 5.48816 8.27015C5.17559 8.56317 5 8.9606 5 9.375C5 9.7894 5.17559 10.1868 5.48816 10.4799C5.80072 10.7729 6.22464 10.9375 6.66667 10.9375C7.10869 10.9375 7.53262 10.7729 7.84518 10.4799C8.15774 10.1868 8.33333 9.7894 8.33333 9.375ZM13.3333 10.9375C13.7754 10.9375 14.1993 10.7729 14.5118 10.4799C14.8244 10.1868 15 9.7894 15 9.375C15 8.9606 14.8244 8.56317 14.5118 8.27015C14.1993 7.97712 13.7754 7.8125 13.3333 7.8125C12.8913 7.8125 12.4674 7.97712 12.1548 8.27015C11.8423 8.56317 11.6667 8.9606 11.6667 9.375C11.6667 9.7894 11.8423 10.1868 12.1548 10.4799C12.4674 10.7729 12.8913 10.9375 13.3333 10.9375Z" fill="#FF4B26"/>
</svg>
