<svg width="50" height="50" viewBox="0 0 50 50" fill="none" xmlns="http://www.w3.org/2000/svg">
<g filter="url(#filter0_d_237_5208)">
<circle cx="25" cy="25" r="15" fill="url(#paint0_linear_237_5208)"/>
</g>
<g clip-path="url(#clip0_237_5208)">
<path fill-rule="evenodd" clip-rule="evenodd" d="M20.4627 30.3796C20.4112 30.3312 20.3603 30.2818 20.31 30.2315C17.6532 27.5747 17.6532 23.2672 20.31 20.6105C22.9667 17.9537 31.4322 17.7759 31.4322 17.7759C31.4322 17.7759 32.5878 27.5747 29.931 30.2315C27.5714 32.591 23.9098 32.855 21.259 31.0234L23.395 28.4022L26.8095 27.665L24.0222 27.3863L25.7936 25.5828L27.8099 25.141L26.2155 24.6689L27.8099 21.7926L25.542 24.3364L24.6663 23.1006L24.9746 25.141L23.395 26.9218L22.6627 24.6688V27.665L20.4627 30.3796Z" fill="white"/>
</g>
<defs>
<filter id="filter0_d_237_5208" x="0" y="0" width="50" height="50" filterUnits="userSpaceOnUse" color-interpolation-filters="sRGB">
<feFlood flood-opacity="0" result="BackgroundImageFix"/>
<feColorMatrix in="SourceAlpha" type="matrix" values="0 0 0 0 0 0 0 0 0 0 0 0 0 0 0 0 0 0 127 0" result="hardAlpha"/>
<feOffset/>
<feGaussianBlur stdDeviation="5"/>
<feColorMatrix type="matrix" values="0 0 0 0 0.392157 0 0 0 0 0.72549 0 0 0 0 0.329412 0 0 0 0.7 0"/>
<feBlend mode="normal" in2="BackgroundImageFix" result="effect1_dropShadow_237_5208"/>
<feBlend mode="normal" in="SourceGraphic" in2="effect1_dropShadow_237_5208" result="shape"/>
</filter>
<linearGradient id="paint0_linear_237_5208" x1="10" y1="10" x2="10" y2="40" gradientUnits="userSpaceOnUse">
<stop stop-color="#5AC178"/>
<stop offset="1" stop-color="#5FBC51"/>
</linearGradient>
<clipPath id="clip0_237_5208">
<rect width="15" height="15" fill="white" transform="translate(17.5 17.5)"/>
</clipPath>
</defs>
</svg>
