<svg width="20" height="20" viewBox="0 0 20 20" fill="none" xmlns="http://www.w3.org/2000/svg">
<path d="M19.8571 4.54545C18.7143 6.59091 16.5714 8.63636 14.2857 8.63636C12.1429 8.63636 10.8571 7.5 9.71429 6.59091C8.57143 5.90909 7.42857 4.77273 5.57143 4.77273C3.85714 4.77273 2.28571 6.36364 1.42857 7.72727L0 4.31818C1.28571 2.27273 3.28571 0 5.57143 0C7.71429 0 9 1.36364 10.1429 2.04546C11.2857 2.72727 12.4286 4.09091 14.2857 4.09091C16 4.09091 17.5714 2.27273 18.4286 0.909091L19.8571 4.54545ZM20 15.6818C18.7143 17.7273 16.7143 20 14.4286 20C12.2857 20 11 18.8636 9.85714 17.9545C8.71428 17.2727 7.57143 15.9091 5.71429 15.9091C4 15.9091 2.42857 17.7273 1.57143 19.0909L0.142857 15.4545C1.42857 13.4091 3.42857 11.1364 5.71429 11.1364C7.85714 11.1364 9.14286 12.2727 10.2857 13.1818C11.4286 13.8636 12.5714 15 14.4286 15C16.1429 15 17.7143 13.1818 18.5714 11.8182L20 15.6818Z" fill="#E97810"/>
</svg>
