<svg width="18" height="20" viewBox="0 0 18 20" fill="none" xmlns="http://www.w3.org/2000/svg">
<path d="M7.56615 19.5814C8.12422 20.1395 9.03052 20.1395 9.58858 19.5814L16.7318 12.4382C17.2899 11.8801 17.2899 10.9738 16.7318 10.4158C16.1738 9.85769 15.2675 9.85769 14.7094 10.4158L10.0038 15.1258L10.0038 1.42865C10.0038 0.63843 9.36536 0 8.57514 0C7.78491 0 7.14648 0.63843 7.14648 1.42865L7.14648 15.1258L2.44086 10.4202C1.8828 9.86216 0.976496 9.86216 0.41843 10.4202C-0.139637 10.9783 -0.139637 11.8846 0.41843 12.4427L7.56169 19.5859L7.56615 19.5814Z" fill="#FF0000"/>
</svg>
